<svg width="500" height="581" viewBox="0 0 500 581" fill="none" xmlns="http://www.w3.org/2000/svg">
<g id="undraw_blooming_g9e9 1">
<g id="Group">
<path id="Vector" d="M182.29 390.909L180.618 390.953L183.813 564.538L185.485 564.494L182.29 390.909Z" fill="#3F3D56"/>
<path id="Vector_2" d="M182.326 467.767C182.174 467.151 178.709 452.512 186.213 438.122L187.631 439.179C180.536 452.786 183.895 467.063 183.93 467.206L182.326 467.767Z" fill="#3F3D56"/>
<path id="Vector_3" d="M186.799 439.233C186.799 439.233 184.518 420.594 205.532 415.478C209.91 414.412 214.026 413.684 217.799 413.199C222.252 412.626 223.99 419.914 219.966 422.268C214.14 425.677 208.659 429.972 205.803 435.058C197.924 449.087 186.799 439.233 186.799 439.233Z" fill="#D0FF63"/>
<path id="Vector_4" d="M184.487 521.668L182.883 521.107C182.918 520.964 186.277 506.687 179.182 493.08L180.6 492.023C188.104 506.413 184.639 521.052 184.487 521.668Z" fill="#3F3D56"/>
<path id="Vector_5" d="M180.014 493.133C180.014 493.133 182.295 474.494 161.281 469.379C156.903 468.313 152.787 467.585 149.014 467.099C144.561 466.527 142.824 473.815 146.847 476.168C152.673 479.578 158.154 483.873 161.011 488.959C168.889 502.987 180.014 493.133 180.014 493.133Z" fill="#D0FF63"/>
<path id="Vector_6" d="M209.262 366.807C213.492 365.474 217.447 363.151 217.316 360.852C217.16 358.122 211.288 356.293 206.221 356.015C210.043 352.441 213.554 347.5 212.48 345.266C211.493 343.212 206.901 344.007 202.664 345.816C205.171 341.531 206.934 336.702 205.592 335.05C203.919 332.991 197.984 336.544 193.934 340.472C194.722 334.353 194.324 326.63 192.028 325.931C190.108 325.347 187.386 329.839 185.52 334.733C184.695 329.598 183.026 324.722 181.099 324.722C178.354 324.722 176.129 334.616 176.129 341.062C176.129 341.426 176.137 341.769 176.151 342.097C175.875 341.715 175.559 341.316 175.199 340.898C171.331 336.407 163.844 331.422 161.931 333.777C160.589 335.429 162.352 340.258 164.859 344.543C160.622 342.734 156.03 341.938 155.043 343.992C153.717 346.753 159.386 353.643 163.995 356.984C163.718 356.944 163.427 356.911 163.117 356.885C157.737 356.447 149.329 358.427 149.142 361.701C149.011 363.999 152.966 366.323 157.196 367.656C152.985 369.548 149.051 372.489 149.408 374.819C149.841 377.647 156.452 378.637 161.65 378.058C157.767 382.512 153.556 390.491 155.313 392.829C156.601 394.543 160.751 392.769 164.498 390.071C162.699 395.001 161.723 400.424 163.37 401.741C165.547 403.481 171.516 397.423 174.664 392.21C174.343 398.588 175.62 407.349 178.153 407.695C180.067 407.956 182.189 403.338 183.495 398.348C184.885 403.463 187.163 408.296 189.126 407.975C191.679 407.559 192.792 398.578 192.316 392.196C195.563 397.194 201.027 402.54 203.088 400.892C204.735 399.575 203.759 394.152 201.96 389.222C205.707 391.921 209.857 393.694 211.145 391.981C212.902 389.642 208.691 381.663 204.808 377.209C210.006 377.788 216.617 376.798 217.05 373.97C217.408 371.64 213.473 368.7 209.262 366.807ZM186.486 384.847C185.399 385.024 184.405 385.278 183.649 385.924C182.845 384.971 181.672 384.681 180.368 384.503C178.907 384.303 177.58 384.284 176.568 385.292C176.198 384.061 175.287 383.187 174.226 382.339C173.314 381.609 172.43 381.011 171.505 380.895C171.433 379.545 170.716 378.397 169.839 377.23C169.279 376.485 168.719 375.82 168.098 375.374C168.994 374.07 168.891 372.422 168.614 370.613C168.416 369.322 168.159 368.146 167.584 367.273C168.344 366.27 168.533 364.856 168.623 363.29C168.72 361.581 168.68 360.03 167.854 358.876C169.988 359.2 171.017 357.612 171.974 355.62C172.521 354.483 172.96 353.387 172.993 352.276C174.115 352.098 175.024 351.165 175.939 350.039C176.72 349.077 177.385 348.125 177.634 347.029C178.53 347.928 179.751 348.064 181.099 348.064C182.412 348.064 183.605 347.935 184.493 347.097C185.183 347.842 186.147 348.229 187.21 348.552C188.225 348.861 189.184 349.068 190.055 348.86C190.373 349.729 190.938 350.517 191.584 351.312C192.499 352.438 193.408 353.371 194.53 353.55C194.563 354.66 195.002 355.756 195.549 356.894C196.193 358.233 196.868 359.39 197.891 359.907C197.771 360.685 197.784 361.541 197.835 362.441C197.925 364.007 198.114 365.422 198.874 366.424C198.299 367.298 198.042 368.473 197.844 369.764C197.567 371.573 197.464 373.221 198.36 374.526C197.739 374.971 197.179 375.636 196.619 376.381C195.742 377.548 195.025 378.696 194.953 380.046C194.028 380.162 193.144 380.76 192.232 381.49C190.986 382.486 189.948 383.519 189.749 385.122C188.814 384.58 187.695 384.65 186.486 384.847Z" fill="#D0FF63"/>
<path id="Vector_7" d="M183.584 387.959C193.388 387.959 201.335 378.459 201.335 366.739C201.335 355.019 193.388 345.518 183.584 345.518C173.781 345.518 165.833 355.019 165.833 366.739C165.833 378.459 173.781 387.959 183.584 387.959Z" fill="#3F3D56"/>
</g>
<path id="Vector_8" d="M49.3103 563.018C49.3103 563.295 49.5746 563.517 49.9037 563.517H310.312C310.641 563.517 310.905 563.295 310.905 563.018C310.905 562.74 310.641 562.518 310.312 562.518H49.9037C49.5746 562.518 49.3103 562.74 49.3103 563.018Z" fill="#3F3D56"/>
<g id="Group_2">
<path id="Vector_9" d="M87.6248 155.844L85.9541 155.888L93.476 564.538L95.1467 564.494L87.6248 155.844Z" fill="#3F3D56"/>
<path id="Vector_10" d="M89.9274 336.372C89.8417 336.023 81.555 301.044 98.9531 267.679L100.372 268.737C83.3653 301.35 91.4475 335.468 91.5312 335.81L89.9274 336.372Z" fill="#3F3D56"/>
<path id="Vector_11" d="M99.3733 269.578C99.3733 269.578 94.0031 225.699 143.474 213.656C153.781 211.147 163.47 209.432 172.351 208.29C182.835 206.941 186.925 224.098 177.454 229.64C163.738 237.665 150.835 247.777 144.11 259.751C125.563 292.776 99.3733 269.578 99.3733 269.578Z" fill="#D0FF63"/>
<path id="Vector_12" d="M92.8451 463.263L91.2413 462.701C91.3246 462.361 99.3913 428.21 82.4009 395.628L83.8194 394.57C101.217 427.935 92.9308 462.914 92.8451 463.263Z" fill="#3F3D56"/>
<path id="Vector_13" d="M83.3993 396.469C83.3993 396.469 88.7694 352.59 39.2984 340.547C28.992 338.038 19.3028 336.324 10.4211 335.181C-0.0629661 333.833 -4.1525 350.989 5.3185 356.531C19.0346 364.557 31.9371 374.668 38.6622 386.642C57.2097 419.667 83.3993 396.469 83.3993 396.469Z" fill="#D0FF63"/>
<path id="Vector_14" d="M152.254 99.0762C162.212 95.9374 171.524 90.4682 171.215 85.0577C170.848 78.6304 157.023 74.3239 145.096 73.6686C154.092 65.2549 162.358 53.6243 159.83 48.3641C157.506 43.5283 146.696 45.4015 136.722 49.6606C142.624 39.5723 146.774 28.2045 143.614 24.3141C139.677 19.4681 125.705 27.8324 116.17 37.0781C118.026 22.6742 117.087 4.4928 111.683 2.84785C107.162 1.47171 100.755 12.048 96.3621 23.5692C94.4205 11.4786 90.4901 0 85.9538 0C79.4917 0 74.2531 23.2922 74.2531 38.467C74.2531 39.3248 74.2721 40.1323 74.3048 40.9038C73.6562 40.0048 72.9129 39.0657 72.0652 38.0815C62.9591 27.5094 45.3325 15.7747 40.8304 21.3167C37.67 25.207 41.8198 36.5749 47.7223 46.6632C37.7482 42.404 26.9378 40.5308 24.6139 45.3667C21.4914 51.8645 34.8385 68.0853 45.6875 75.9515C45.0353 75.8576 44.3502 75.7785 43.621 75.719C30.9569 74.6861 11.162 79.3486 10.7221 87.056C10.4132 92.4665 19.7251 97.9357 29.6829 101.074C19.769 105.53 10.5065 112.452 11.3472 117.938C12.3675 124.596 27.9306 126.926 40.1675 125.562C31.0256 136.048 21.1129 154.832 25.2498 160.337C28.2813 164.371 38.0507 160.196 46.8717 153.842C42.6382 165.449 40.339 178.215 44.2166 181.316C49.341 185.414 63.395 171.151 70.8049 158.879C70.0498 173.893 73.0549 194.519 79.0175 195.333C83.5245 195.948 88.5189 185.077 91.5954 173.328C94.8666 185.37 100.229 196.747 104.851 195.993C110.862 195.013 113.482 173.87 112.361 158.845C120.004 170.613 132.868 183.198 137.72 179.318C141.598 176.217 139.299 163.45 135.065 151.844C143.886 158.197 153.655 162.373 156.687 158.339C160.824 152.834 150.911 134.05 141.769 123.564C154.006 124.928 169.569 122.597 170.59 115.939C171.43 110.454 162.168 103.531 152.254 99.0762ZM98.6362 141.545C96.0766 141.963 93.7361 142.559 91.9562 144.082C90.0653 141.838 87.3036 141.154 84.2329 140.735C80.7946 140.266 77.6701 140.22 75.2874 142.592C74.4156 139.695 72.2718 137.637 69.7746 135.64C67.6273 133.923 65.5449 132.513 63.3681 132.242C63.198 129.063 61.5104 126.361 59.445 123.613C58.128 121.86 56.8104 120.293 55.3483 119.245C57.4578 116.175 57.2145 112.294 56.5619 108.035C56.0963 104.997 55.4914 102.229 54.1379 100.173C55.9269 97.8125 56.3722 94.4831 56.5826 90.7969C56.8123 86.7719 56.7169 83.1226 54.7735 80.4052C59.7957 81.1689 62.2194 77.4285 64.4721 72.7406C65.7589 70.0627 66.7935 67.483 66.8722 64.8682C69.5134 64.449 71.653 62.2522 73.8061 59.6017C75.6455 57.3374 77.2101 55.0955 77.7978 52.515C79.9054 54.6325 82.7812 54.9529 85.9538 54.9529C89.0445 54.9529 91.8532 54.6485 93.9449 52.6754C95.5688 54.4296 97.8375 55.3396 100.341 56.1016C102.731 56.8291 104.987 57.3156 107.038 56.826C107.786 58.8707 109.118 60.7275 110.638 62.5991C112.791 65.2497 114.931 67.4464 117.572 67.8657C117.651 70.4805 118.685 73.0602 119.972 75.7381C121.487 78.8903 123.078 81.6158 125.484 82.8319C125.203 84.6629 125.233 86.6783 125.354 88.7986C125.565 92.4849 126.01 95.8143 127.799 98.1747C126.445 100.231 125.84 102.999 125.375 106.037C124.722 110.296 124.479 114.177 126.588 117.247C125.126 118.295 123.809 119.862 122.492 121.615C120.426 124.363 118.739 127.065 118.569 130.243C116.392 130.515 114.309 131.925 112.162 133.642C109.229 135.987 106.787 138.418 106.317 142.192C104.117 140.916 101.482 141.081 98.6362 141.545Z" fill="#D0FF63"/>
<path id="Vector_15" d="M91.8042 148.872C114.883 148.872 133.593 126.506 133.593 98.9152C133.593 71.3246 114.883 48.958 91.8042 48.958C68.7251 48.958 50.0159 71.3246 50.0159 98.9152C50.0159 126.506 68.7251 148.872 91.8042 148.872Z" fill="#3F3D56"/>
</g>
<g id="Group_3">
<path id="Vector_16" d="M261.438 460.858L259.767 460.901L261.564 558.543L263.235 558.499L261.438 460.858Z" fill="#3F3D56"/>
<path id="Vector_17" d="M260.742 504.223C260.655 503.869 258.662 495.451 262.969 487.193L264.387 488.251C260.489 495.727 262.327 503.584 262.346 503.662L260.742 504.223Z" fill="#3F3D56"/>
<path id="Vector_18" d="M263.609 488.049C263.609 488.049 262.326 477.565 274.147 474.687C276.609 474.088 278.924 473.678 281.046 473.405C283.551 473.083 284.529 477.183 282.266 478.507C278.988 480.424 275.905 482.84 274.299 485.701C269.867 493.592 263.609 488.049 263.609 488.049Z" fill="#D0FF63"/>
<path id="Vector_19" d="M262.66 534.542L261.055 533.981C261.074 533.903 262.913 526.046 259.014 518.57L260.432 517.513C264.739 525.771 262.746 534.188 262.66 534.542Z" fill="#3F3D56"/>
<path id="Vector_20" d="M259.792 518.369C259.792 518.369 261.075 507.884 249.255 505.007C246.792 504.407 244.477 503.997 242.355 503.724C239.85 503.402 238.873 507.502 241.136 508.826C244.413 510.743 247.496 513.159 249.103 516.02C253.535 523.911 259.792 518.369 259.792 518.369Z" fill="#D0FF63"/>
<path id="Vector_21" d="M276.244 447.31C278.623 446.56 280.848 445.253 280.775 443.96C280.687 442.425 277.384 441.396 274.534 441.239C276.683 439.229 278.658 436.45 278.054 435.193C277.499 434.037 274.916 434.485 272.533 435.503C273.943 433.092 274.935 430.376 274.18 429.447C273.239 428.289 269.901 430.287 267.622 432.496C268.066 429.055 267.842 424.71 266.55 424.317C265.47 423.989 263.939 426.516 262.889 429.269C262.426 426.38 261.486 423.637 260.403 423.637C258.858 423.637 257.607 429.202 257.607 432.828C257.607 433.033 257.611 433.226 257.619 433.41C257.464 433.196 257.287 432.971 257.084 432.736C254.908 430.21 250.697 427.406 249.621 428.73C248.866 429.66 249.857 432.376 251.268 434.787C248.884 433.769 246.301 433.321 245.746 434.477C245 436.029 248.189 439.905 250.781 441.785C250.626 441.762 250.462 441.743 250.288 441.729C247.262 441.482 242.532 442.596 242.427 444.438C242.353 445.731 244.578 447.038 246.957 447.787C244.588 448.852 242.375 450.506 242.576 451.817C242.82 453.408 246.539 453.965 249.462 453.639C247.278 456.144 244.91 460.632 245.898 461.948C246.622 462.911 248.957 461.914 251.064 460.396C250.053 463.169 249.503 466.219 250.43 466.96C251.654 467.939 255.012 464.531 256.783 461.599C256.602 465.187 257.321 470.115 258.745 470.309C259.822 470.456 261.015 467.859 261.751 465.052C262.532 467.929 263.813 470.647 264.918 470.467C266.354 470.233 266.98 465.181 266.712 461.591C268.538 464.403 271.612 467.41 272.771 466.483C273.698 465.742 273.149 462.691 272.137 459.918C274.245 461.436 276.579 462.434 277.303 461.47C278.292 460.155 275.923 455.666 273.739 453.161C276.663 453.487 280.381 452.93 280.625 451.339C280.826 450.029 278.613 448.375 276.244 447.31ZM263.433 457.457C262.821 457.557 262.262 457.7 261.837 458.064C261.385 457.527 260.725 457.364 259.991 457.264C259.17 457.152 258.423 457.141 257.854 457.708C257.646 457.015 257.133 456.524 256.537 456.047C256.024 455.636 255.526 455.299 255.006 455.235C254.965 454.475 254.562 453.83 254.069 453.173C253.754 452.754 253.439 452.38 253.09 452.129C253.594 451.396 253.536 450.468 253.38 449.451C253.268 448.725 253.124 448.063 252.801 447.572C253.228 447.008 253.334 446.213 253.385 445.332C253.44 444.37 253.417 443.498 252.952 442.849C254.152 443.031 254.732 442.138 255.27 441.017C255.577 440.378 255.824 439.761 255.843 439.136C256.474 439.036 256.986 438.511 257.5 437.878C257.94 437.337 258.313 436.801 258.454 436.185C258.957 436.691 259.644 436.767 260.403 436.767C261.141 436.767 261.812 436.695 262.312 436.223C262.7 436.642 263.242 436.86 263.84 437.042C264.411 437.216 264.95 437.332 265.44 437.215C265.619 437.703 265.937 438.147 266.301 438.594C266.815 439.228 267.326 439.752 267.957 439.853C267.976 440.477 268.223 441.094 268.531 441.734C268.893 442.487 269.273 443.138 269.848 443.429C269.781 443.866 269.788 444.348 269.817 444.854C269.867 445.735 269.973 446.531 270.401 447.095C270.077 447.586 269.933 448.247 269.822 448.973C269.666 449.991 269.608 450.918 270.112 451.652C269.762 451.902 269.448 452.277 269.133 452.695C268.639 453.352 268.236 453.998 268.195 454.757C267.675 454.822 267.178 455.159 266.665 455.569C265.964 456.129 265.38 456.71 265.268 457.612C264.742 457.307 264.113 457.347 263.433 457.457Z" fill="#D0FF63"/>
<path id="Vector_22" d="M261.8 459.208C267.315 459.208 271.785 453.864 271.785 447.272C271.785 440.679 267.315 435.335 261.8 435.335C256.286 435.335 251.816 440.679 251.816 447.272C251.816 453.864 256.286 459.208 261.8 459.208Z" fill="#3F3D56"/>
</g>
</g>
</svg>
